<svg xmlns="http://www.w3.org/2000/svg" viewBox="0 0 100 125" x="0px" y="0px"><path d="M79.98,20.36h0c-1.26-.21-2.47,.61-2.74,1.87l-4.38,20.69c-.21,.98-1.36,1.4-2.15,.79h0c-.34-.27-.54-.68-.53-1.11l.89-29.36c.06-2.03-1.43-3.76-3.44-4.01h0c-1.26-.15-2.4,.76-2.52,2.02l-2.46,27.62c-.04,.44-.32,.77-.76,.77-.07,0-.3-.04-.3-.04-.04-.02-.67-.14-.68-.82l-.29-29.57c0-1.62-1.31-2.93-2.93-2.93h0c-1.85,0-3.36,1.48-3.4,3.33l-.62,28.79c-.02,.69-.53,1.26-1.21,1.34-.76,.09-1.45-.45-1.53-1.21l-3.18-28.01c-.14-1.22-1.21-2.12-2.44-2.05h0c-2.43,.15-4.3,2.21-4.22,4.64,.27,7.77,.8,23.65,.87,28.53,.1,6.56-.62,8.3-3.49,16.3-2.87,8-7.79-2.25-7.79-2.25-3.39-7.01-8.21-8.16-11.72-7.85-1.87,.16-2.71,2.42-1.4,3.76,3.57,3.63,5.68,9.07,6.89,13.56,1.54,5.69,5.14,10.61,10.11,13.77,.07,.05,.14,.09,.22,.14,5.56,3.52,6.81,10.22,7.09,13.18,.08,.84,.78,1.47,1.62,1.47h23.66c.86,0,1.57-.67,1.62-1.52l.08-1.27c.16-2.54,.75-5.03,1.74-7.37l2.63-6.17c2.97-6.98,4.95-14.33,5.89-21.86l3.88-31.08c.24-1.96-1.1-3.76-3.04-4.08h0Z"/><text x="0" y="115" fill="#000000" font-size="5px" font-weight="bold" font-family="'Helvetica Neue', Helvetica, Arial-Unicode, Arial, Sans-serif">Created by Suncheli Project</text><text x="0" y="120" fill="#000000" font-size="5px" font-weight="bold" font-family="'Helvetica Neue', Helvetica, Arial-Unicode, Arial, Sans-serif">from the Noun Project</text></svg>