<svg xmlns="http://www.w3.org/2000/svg" xmlns:xlink="http://www.w3.org/1999/xlink" version="1.1" fill="current" stroke="current" x="0px" y="0px" viewBox="0 0 100 125" style="enable-background:new 0 0 100 100;" xml:space="preserve"><g><g><path d="M69.311,58.645c-1.665-0.724-3.931-4.024-5.511-8.026c-1.062-2.691-4.227-10.647-12.805-11.254    c-0.171-0.037-0.348-0.059-0.531-0.059c-0.088,0-0.166,0.013-0.252,0.014c-0.086-0.001-0.165-0.014-0.252-0.014    c-0.182,0-0.359,0.022-0.531,0.059c-8.577,0.607-11.743,8.564-12.805,11.254c-1.58,4.002-3.847,7.303-5.512,8.027    c-7.115,3.096-11.384,10.589-10.379,18.221c0.92,6.998,6.005,12.022,13.269,13.111c0.85,0.127,1.707,0.19,2.563,0.19    c2.335,0,4.67-0.471,6.868-1.395c0.961-0.404,1.831-0.873,2.671-1.326c1.453-0.784,2.724-1.463,4.109-1.62    c1.385,0.157,2.657,0.836,4.11,1.62c0.84,0.453,1.708,0.923,2.669,1.326c2.198,0.924,4.534,1.395,6.869,1.395    c0.856,0,1.713-0.063,2.563-0.19c7.264-1.089,12.349-6.113,13.27-13.111C80.695,69.234,76.427,61.741,69.311,58.645z"/><path d="M27.999,45.983c-1-6.914-6.153-12.127-11.987-12.127c-0.468,0-0.94,0.034-1.404,0.101    c-6.293,0.91-10.526,7.786-9.435,15.328c1,6.913,6.153,12.126,11.987,12.126c0.468,0,0.94-0.034,1.405-0.101    C24.857,60.398,29.09,53.523,27.999,45.983z"/><path d="M35.407,37.471c6.358,0,11.532-6.199,11.532-13.818S41.765,9.834,35.407,9.834c-6.359,0-11.532,6.199-11.532,13.818    S29.048,37.471,35.407,37.471z"/><path d="M92.425,38.659c-1.999-2.887-4.852-4.596-8.032-4.812c-6.362-0.438-11.929,5.435-12.442,13.004    c-0.243,3.58,0.657,7.045,2.536,9.757c1.999,2.887,4.852,4.596,8.033,4.812c0.223,0.016,0.445,0.022,0.666,0.022    c6.106,0,11.28-5.722,11.776-13.026C95.204,44.836,94.304,41.371,92.425,38.659z"/><path d="M64.635,37.471c6.358,0,11.532-6.199,11.532-13.818S70.994,9.834,64.635,9.834s-11.532,6.199-11.532,13.818    S58.277,37.471,64.635,37.471z"/></g></g></svg>